<svg width="50" height="50" viewBox="0 0 50 50" fill="none" xmlns="http://www.w3.org/2000/svg">
<path opacity="0.4" d="M5 10C5 7.24219 7.24219 5 10 5H30C32.7578 5 35 7.24219 35 10V21.3047C27.2969 21.9375 21.25 28.3906 21.25 36.25C21.25 39.5156 22.2969 42.5391 24.0625 45H10C7.24219 45 5 42.7578 5 40V10ZM12.5 16.875C12.5 17.9141 13.3359 18.75 14.375 18.75H25.625C26.6641 18.75 27.5 17.9141 27.5 16.875C27.5 15.8359 26.6641 15 25.625 15H14.375C13.3359 15 12.5 15.8359 12.5 16.875ZM12.5 24.375C12.5 25.4141 13.3359 26.25 14.375 26.25H19.375C20.4141 26.25 21.25 25.4141 21.25 24.375C21.25 23.3359 20.4141 22.5 19.375 22.5H14.375C13.3359 22.5 12.5 23.3359 12.5 24.375ZM12.5 31.875C12.5 32.9141 13.3359 33.75 14.375 33.75H16.875C17.9141 33.75 18.75 32.9141 18.75 31.875C18.75 30.8359 17.9141 30 16.875 30H14.375C13.3359 30 12.5 30.8359 12.5 31.875Z" fill="#CE2C2C"/>
<path d="M25 36.25C25 30.0391 30.0391 25 36.25 25C42.4609 25 47.5 30.0391 47.5 36.25C47.5 42.4609 42.4609 47.5 36.25 47.5C30.0391 47.5 25 42.4609 25 36.25ZM37.8125 31.25C37.8125 30.3906 37.1094 29.6875 36.25 29.6875C35.3906 29.6875 34.6875 30.3906 34.6875 31.25C34.6875 32.1094 35.3906 32.8125 36.25 32.8125C37.1094 32.8125 37.8125 32.1094 37.8125 31.25ZM35 35C34.3125 35 33.75 35.5625 33.75 36.25C33.75 36.9375 34.3125 37.5 35 37.5V40C34.3125 40 33.75 40.5625 33.75 41.25C33.75 41.9375 34.3125 42.5 35 42.5H37.5C38.1875 42.5 38.75 41.9375 38.75 41.25C38.75 40.5625 38.1875 40 37.5 40V36.25C37.5 35.5625 36.9375 35 36.25 35H35Z" fill="#CE2C2C"/>
</svg>
