<svg width="32" height="32" viewBox="0 0 32 32" fill="none" xmlns="http://www.w3.org/2000/svg">
<path d="M29.4375 1.375L30.625 2.5625C32 3.9375 32 6.125 30.625 7.5L28.75 9.375L22.625 3.25L24.5 1.375C25.875 0 28.0625 0 29.4375 1.375ZM10.75 15.125L21.1875 4.6875L27.3125 10.8125L16.875 21.25C16.5 21.625 16 21.9375 15.5 22.125L9.9375 23.9375C9.4375 24.125 8.8125 24 8.4375 23.5625C8 23.1875 7.875 22.5625 8.0625 22.0625L9.875 16.5C10.0625 16 10.375 15.5 10.75 15.125ZM6 4H12C13.0625 4 14 4.9375 14 6C14 7.125 13.0625 8 12 8H6C4.875 8 4 8.9375 4 10V26C4 27.125 4.875 28 6 28H22C23.0625 28 24 27.125 24 26V20C24 18.9375 24.875 18 26 18C27.0625 18 28 18.9375 28 20V26C28 29.3125 25.3125 32 22 32H6C2.6875 32 0 29.3125 0 26V10C0 6.6875 2.6875 4 6 4Z" fill="#CE2C2C"/>
</svg>
