<svg width="60" height="60" viewBox="0 0 60 60" fill="none" xmlns="http://www.w3.org/2000/svg">
<rect x="1" y="1" width="58" height="58" rx="14" stroke="#CE2C2C" stroke-width="2"/>
<path d="M18 37.5C18 36.7031 18.6562 36 19.5 36H22.0312C22.6406 34.6875 23.9531 33.75 25.5 33.75C27 33.75 28.3125 34.6875 28.9219 36H40.5C41.2969 36 42 36.7031 42 37.5C42 38.3438 41.2969 39 40.5 39H28.9219C28.3125 40.3594 27 41.25 25.5 41.25C23.9531 41.25 22.6406 40.3594 22.0312 39H19.5C18.6562 39 18 38.3438 18 37.5ZM27 37.5C27 36.7031 26.2969 36 25.5 36C24.6562 36 24 36.7031 24 37.5C24 38.3438 24.6562 39 25.5 39C26.2969 39 27 38.3438 27 37.5ZM34.5 26.25C36 26.25 37.3125 27.1875 37.9219 28.5H40.5C41.2969 28.5 42 29.2031 42 30C42 30.8438 41.2969 31.5 40.5 31.5H37.9219C37.3125 32.8594 36 33.75 34.5 33.75C32.9531 33.75 31.6406 32.8594 31.0312 31.5H19.5C18.6562 31.5 18 30.8438 18 30C18 29.2031 18.6562 28.5 19.5 28.5H31.0312C31.6406 27.1875 32.9531 26.25 34.5 26.25ZM36 30C36 29.2031 35.2969 28.5 34.5 28.5C33.6562 28.5 33 29.2031 33 30C33 30.8438 33.6562 31.5 34.5 31.5C35.2969 31.5 36 30.8438 36 30ZM40.5 21C41.2969 21 42 21.7031 42 22.5C42 23.3438 41.2969 24 40.5 24H30.4219C29.8125 25.3594 28.5 26.25 27 26.25C25.4531 26.25 24.1406 25.3594 23.5312 24H19.5C18.6562 24 18 23.3438 18 22.5C18 21.7031 18.6562 21 19.5 21H23.5312C24.1406 19.6875 25.4531 18.75 27 18.75C28.5 18.75 29.8125 19.6875 30.4219 21H40.5ZM25.5 22.5C25.5 23.3438 26.1562 24 27 24C27.7969 24 28.5 23.3438 28.5 22.5C28.5 21.7031 27.7969 21 27 21C26.1562 21 25.5 21.7031 25.5 22.5Z" fill="#CE2C2C"/>
</svg>
