<svg width="12" height="32" viewBox="0 0 12 32" fill="none" xmlns="http://www.w3.org/2000/svg">
<path d="M3 5C3 3.9375 3.5625 3 4.5 2.4375C5.375 1.875 6.5625 1.875 7.5 2.4375C8.375 3 9 3.9375 9 5C9 6.125 8.375 7.0625 7.5 7.625C6.5625 8.1875 5.375 8.1875 4.5 7.625C3.5625 7.0625 3 6.125 3 5ZM0 14C0 12.9375 0.875 12 2 12H6C7.0625 12 8 12.9375 8 14V28H10C11.0625 28 12 28.9375 12 30C12 31.125 11.0625 32 10 32H2C0.875 32 0 31.125 0 30C0 28.9375 0.875 28 2 28H4V16H2C0.875 16 0 15.125 0 14Z" fill="#CE2C2C"/>
</svg>
