<svg width="32" height="33" viewBox="0 0 32 33" fill="none" xmlns="http://www.w3.org/2000/svg">
<path d="M18 7.0625V22.1875C18 23.3125 17.0625 24.1875 16 24.1875C14.875 24.1875 14 23.3125 14 22.1875V7.0625L9.375 11.625C8.625 12.4375 7.3125 12.4375 6.5625 11.625C5.75 10.875 5.75 9.5625 6.5625 8.8125L14.5625 0.8125C15.3125 0 16.625 0 17.375 0.8125L25.375 8.8125C26.1875 9.5625 26.1875 10.875 25.375 11.625C24.625 12.4375 23.3125 12.4375 22.5625 11.625L18 7.0625ZM4 22.1875H12C12 24.4375 13.75 26.1875 16 26.1875C18.1875 26.1875 20 24.4375 20 22.1875H28C30.1875 22.1875 32 24 32 26.1875V28.1875C32 30.4375 30.1875 32.1875 28 32.1875H4C1.75 32.1875 0 30.4375 0 28.1875V26.1875C0 24 1.75 22.1875 4 22.1875ZM27 28.6875C27.8125 28.6875 28.5 28.0625 28.5 27.1875C28.5 26.375 27.8125 25.6875 27 25.6875C26.125 25.6875 25.5 26.375 25.5 27.1875C25.5 28.0625 26.125 28.6875 27 28.6875Z" fill="#CE2C2C"/>
</svg>
