<svg width="54" height="52" viewBox="0 0 54 52" fill="none" xmlns="http://www.w3.org/2000/svg">
<rect width="54" height="52" rx="15" fill="white"/>
<path d="M30.8438 19.375C30.8438 18.0078 30.0625 16.7383 28.8906 16.0059C27.6699 15.3223 26.1562 15.3223 24.9844 16.0059C23.7637 16.7383 23.0312 18.0078 23.0312 19.375C23.0312 20.791 23.7637 22.0605 24.9844 22.793C26.1562 23.4766 27.6699 23.4766 28.8906 22.793C30.0625 22.0605 30.8438 20.791 30.8438 19.375ZM20.6875 19.375C20.6875 17.1777 21.8594 15.127 23.8125 14.0039C25.7168 12.8809 28.1094 12.8809 30.0625 14.0039C31.9668 15.127 33.1875 17.1777 33.1875 19.375C33.1875 21.6211 31.9668 23.6719 30.0625 24.7949C28.1094 25.918 25.7168 25.918 23.8125 24.7949C21.8594 23.6719 20.6875 21.6211 20.6875 19.375ZM18.3926 35.7812H35.4336C34.9941 32.7051 32.3574 30.3125 29.1348 30.3125H24.6914C21.4688 30.3125 18.832 32.7051 18.3926 35.7812ZM16 36.709C16 31.875 19.8574 27.9688 24.6914 27.9688H29.1348C33.9688 27.9688 37.875 31.875 37.875 36.709C37.875 37.4902 37.1914 38.125 36.4102 38.125H17.416C16.6348 38.125 16 37.4902 16 36.709Z" fill="#CE2C2C"/>
</svg>
